<svg height="500" width="750" xmlns="http://www.w3.org/2000/svg" xmlns:xlink="http://www.w3.org/1999/xlink"><linearGradient id="a"><stop offset="0" stop-color="#014004"/><stop offset="1" stop-color="#014004" stop-opacity="0"/></linearGradient><radialGradient id="b" cx="79.311" cy="182.979" gradientTransform="matrix(1 0 0 .94827 0 9.465)" gradientUnits="userSpaceOnUse" r="10.849" xlink:href="#a"/><radialGradient id="c" cx="86.412" cy="158.866" gradientTransform="matrix(1 0 0 1.01639 0 -2.604)" gradientUnits="userSpaceOnUse" r="10.748" xlink:href="#a"/><radialGradient id="d" cx="63.265" cy="165.398" gradientTransform="matrix(1 0 0 1.35155 0 -58.145)" gradientUnits="userSpaceOnUse" r="6.976" xlink:href="#a"/><radialGradient id="e" cx="62.874" cy="141.393" gradientTransform="matrix(1 0 0 .72588 0 38.76)" gradientUnits="userSpaceOnUse" r="9.733" xlink:href="#a"/><radialGradient id="f" cx="59.143" cy="118.906" gradientTransform="matrix(1 0 0 1.15797 0 -18.784)" gradientUnits="userSpaceOnUse" r="6.907" xlink:href="#a"/><radialGradient id="g" cx="77.34" cy="102.59" gradientTransform="matrix(1 0 0 .6949 0 31.301)" gradientUnits="userSpaceOnUse" r="8.255" xlink:href="#a"/><radialGradient id="h" cx="95.646" cy="127.457" gradientTransform="matrix(1 0 0 .97725 0 2.9)" gradientUnits="userSpaceOnUse" r="9.389" xlink:href="#a"/><path d="m0 0h750v500h-750z" fill="#0047ab" fill-rule="evenodd"/><g transform="matrix(.99777 0 0 1.00136 -216.662 -80.281)"><g transform="matrix(1.01238 0 0 1.01238 229.471 89.285)"><g fill="#ffdf00" fill-rule="evenodd" stroke="#000" stroke-width="1pt"><g transform="matrix(-1 0 0 1 288.038 .538)"><path d="m61.46 74.333c-6.995 12.492-26.482 12.492-27.482 16.99-1 4.496 2.998 8.744 2.998 8.744s28.732-8.995 34.728-17.989-10.243-7.745-10.243-7.745z" fill-opacity=".941176"/><path d="m33.83 92.95c-.368 3.232 11.391-.878 13.89-.628 2.498.25 4.996 3.248 3.997 4.996-1 1.75-7.245 4.498-10.493 4.747-3.248.25-7.917-5.454-7.395-9.115z"/><path d="m39.974 111.14c-2.998-9.244 14.12-15.776 7.6-17.498 3.509-.181 8.765 3.942 6.142 7.51-.948 1.289-12.992 3.992-13.742 9.988z" fill-opacity=".941176"/></g><path d="m61.46 74.333c-6.995 12.492-26.482 12.492-27.482 16.99-1 4.496 2.998 8.744 2.998 8.744s28.732-8.995 34.728-17.989-10.243-7.745-10.243-7.745z"/><path d="m33.83 92.95c-.368 3.232 11.391-.878 13.89-.628 2.498.25 4.996 3.248 3.997 4.996-1 1.75-7.245 4.498-10.493 4.747-3.248.25-7.917-5.454-7.395-9.115z" fill-opacity=".941176"/><path d="m39.974 109.81c-2.998-9.244 14.12-15.777 7.6-17.5 3.509-.18 8.765 3.939 6.142 7.507-.948 1.288-12.992 3.997-13.742 9.993z"/><g transform="matrix(-1 0 0 1 287.211 -.296)"><path d="m37.163 56.018c-4.83-10.318 12.603-22.157-3.913-13.494 1.567-9.609 13.386-5.29 13.386-1.565 0 3.724-4.939 7.367-4.858 10.363.08 2.996 5.02 5.1 5.02 5.1z"/><path d="m63.02 38.497c-9.712-1.022-14.878 16.948-25.838 17.773-.301 1.008 2.556 3.804 8.05 3.833 8.177.043 24.532-16.227 24.532-16.227l-6.745-5.38z"/><path d="m51.555 68.83c.282-7.057 13.876-16.336 15.065-23.864.847-5.364-4.234-6.493-4.234-6.493s6.492-1.976 20.607 17.502c14.114 19.478-31.258 12.88-31.438 12.855z"/></g><path d="m37.163 56.018c-4.83-10.318 12.603-22.157-3.913-13.494 1.567-9.609 13.386-5.29 13.386-1.565 0 3.724-4.939 7.367-4.858 10.363.08 2.996 5.02 5.1 5.02 5.1z"/><path d="m63.02 38.497c-9.712-1.022-14.878 16.948-25.838 17.773-.301 1.008 2.556 3.804 8.05 3.833 8.177.043 24.532-16.227 24.532-16.227l-6.745-5.38z"/><path d="m51.555 68.83c.282-7.057 13.876-16.336 15.065-23.864.847-5.364-4.234-6.493-4.234-6.493s6.492-1.976 20.607 17.502c14.114 19.478-31.258 12.88-31.438 12.855z"/><path d="m52.188 68.69c19.458.244 42.167-37.61 91.561-37.61 49.567 0 76.67 36.224 90.705 36.85 6.815.303-18.109 24.056-21.844 24.27-8.252.474-39.211-33.206-68.372-33.206-25.202 0-53.059 31.965-69.078 31.592-3.046-.071-27.99-21.959-22.972-21.897z"/></g><path d="m210.69 65.174-10.782 13.469-2.622-2.1 3.344-7.369-4.901 6.123-2.502-2.003 10.781-13.469 2.502 2.003-3.177 7.408 4.855-6.065zm-18.785-13.44 2.3 1.44c1.533.959 2.526 1.677 2.98 2.154.459.48.679 1.112.66 1.897-.01.781-.404 1.796-1.185 3.042-.712 1.138-1.312 1.827-1.798 2.068-.487.24-1.11.177-1.87-.19.527.59.803 1.11.828 1.562.025.451-.02.826-.134 1.123-.105.294-.527 1.032-1.266 2.212l-2.414 3.857-3.018-1.889 3.042-4.86c.49-.782.74-1.301.748-1.555.014-.251-.203-.517-.65-.797l-4.128 6.594-3.25-2.034zm1.683 4.536-2.036 3.251c.366.23.656.331.872.307.224-.027.538-.363.942-1.007l.503-.804c.29-.464.408-.813.355-1.048-.049-.231-.26-.464-.636-.7m-11.507 1.673c-.696 1.555-1.221 2.643-1.578 3.264a4.397 4.397 0 0 1 -1.38 1.506 3.593 3.593 0 0 1 -1.882.638c-.69.036-1.407-.113-2.154-.447-.708-.316-1.285-.735-1.732-1.256a3.606 3.606 0 0 1 -.808-1.83 4.416 4.416 0 0 1 .178-2.044c.22-.667.686-1.797 1.4-3.39l1.184-2.649c.696-1.555 1.217-2.641 1.565-3.258a4.566 4.566 0 0 1 1.384-1.516 3.654 3.654 0 0 1 1.891-.634c.69-.036 1.407.113 2.154.447.708.317 1.28.738 1.72 1.263.446.52.72 1.129.82 1.824.101.696.042 1.376-.178 2.043s-.686 1.797-1.4 3.39zm-1.164-6.625c.322-.72.492-1.195.51-1.424.026-.234-.068-.398-.28-.493a.504.504 0 0 0 -.528.062c-.164.118-.424.576-.78 1.373l-3.234 7.228c-.402.899-.62 1.467-.654 1.704-.029.24.071.41.3.513.234.104.438.05.612-.163s.464-.775.872-1.686zm-16.884-11 3.676 1.053c1.162.332 2.01.69 2.544 1.072.54.383.902.952 1.084 1.706.183.748.07 1.838-.34 3.273-.278.97-.603 1.608-.975 1.915-.367.31-.961.457-1.784.443.787.47 1.257 1.01 1.41 1.623.155.606.078 1.449-.231 2.528l-.44 1.536c-.321 1.12-.67 1.919-1.046 2.395-.37.477-.823.747-1.358.808-.535.06-1.544-.12-3.026-.545l-4.263-1.22zm2.873 3.893-1.056 3.688c.16.038.283.07.37.095.362.104.622.067.78-.11.16-.183.38-.766.662-1.75.148-.519.211-.892.188-1.12-.02-.236-.09-.4-.21-.493-.112-.091-.357-.195-.734-.31m-1.796 6.27-1.329 4.64c.526.129.883.128 1.072-.003.195-.13.388-.528.58-1.198l.442-1.546c.204-.71.263-1.16.177-1.346-.085-.187-.399-.37-.942-.547m-24.882-13.466h6.43v3.474h-2.574v3.29h2.41v3.302h-2.41v3.084h2.83v3.467h-6.686zm-9.731 1.214 2.573 13.195 3.758-.757.66 3.269-7.44 1.504-3.216-16.496zm-9.984 2.496 1.187 3.242-2.138.782 4.744 12.96-3.6 1.317-4.744-12.959-2.129.78-1.186-3.243 7.866-2.88m-12.664 5.064 1.547 3.087-2.036 1.02 6.182 12.337-3.427 1.717-6.182-12.338-2.027 1.016-1.546-3.087zm-13.339 7.722 11.218 13.29-3.295 2.133-1.845-2.5-1.155.748 1.495 2.727-3.333 2.157-7.74-15.542zm4.324 10.416a236.607 236.607 0 0 1 -4.422-5.758c1.466 2.979 2.573 5.135 3.321 6.47l1.1-.712m-21.972.556 3.137-2.187c.99-.691 1.803-1.123 2.437-1.297.639-.177 1.308-.098 2.007.237.696.33 1.47 1.106 2.324 2.33.577.827.867 1.482.87 1.964.01.48-.252 1.034-.782 1.664.86-.315 1.577-.338 2.149-.07.568.262 1.173.854 1.815 1.775l.914 1.31c.666.957 1.065 1.73 1.197 2.323.137.589.06 1.11-.23 1.564-.29.453-1.068 1.121-2.333 2.003l-3.637 2.536zm4.832.229 2.195 3.147c.13-.1.233-.176.307-.228.309-.215.445-.44.407-.673-.04-.24-.354-.78-.94-1.619-.308-.443-.558-.727-.75-.853-.196-.132-.367-.182-.514-.149-.142.03-.377.155-.705.375m3.73 5.35 2.762 3.96c.43-.327.655-.605.673-.834.023-.232-.165-.634-.563-1.205l-.92-1.32c-.423-.606-.734-.935-.933-.987s-.538.077-1.018.385"/></g><path d="m374.848 158.636 9.091 25.152h26.061l-21.818 16.06 8.788 25.152-20.91-16.06-22.424 15.757 8.182-24.848-21.818-16.061 27.273-.606z" fill="#c9c0bb" fill-rule="evenodd"/><g id="i" fill-rule="evenodd" transform="matrix(1.02021 .22593 .08278 1.0133 204.483 76.648)"><path d="m178.467 223.039c-4.685 3.407-13.204-13.204-35.779-16.612-22.574-3.407-20.445 17.89-31.519 11.074-11.074-6.815 15.334-10.648 15.334-10.648s-6.815.426-11.075 0c-4.259-.426-11.5 4.26-16.611 4.685-5.111.426-7.667-2.981-8.519-6.389a70.931 70.931 0 0 1 -1.278-6.389s6.39 5.537 9.797 5.963 10.222 0 10.222 0-5.537-2.555-9.796-5.11c-4.26-2.556-8.945-6.39-8.945-6.39s-8.093 4.26-15.76 2.982c-7.666-1.278-12.777-13.63-12.777-13.63s7.666 8.944 13.204 9.796c5.537.852 8.944-1.703 8.944-1.703s-5.537-6.39-8.518-10.649c-2.982-4.26-3.408-2.555-2.982-4.26.426-1.703.426-3.407.426-3.407l-5.963-2.13-3.834-4.259s-5.11-5.537-5.537-8.092c-.426-2.556 5.111-7.241 7.241-6.39 2.13.852-1.278 4.26-.852 7.241.426 2.982 7.241 6.815 7.241 6.815s-3.407-5.963-3.407-8.518c0-2.556-.426-3.834-.426-3.834s.852 1.278-2.13-1.703c-2.981-2.982-8.519-2.556-8.519-5.964 0-3.407-.426-5.11-.426-5.11s2.13 2.98 4.686 4.685c2.555 1.703 4.685 1.703 4.685 1.703s-2.556-2.981-5.537-7.24c-2.982-4.26-13.63-9.371-13.204-11.5.426-2.13 1.704-4.26 1.704-4.26s1.277 4.26 5.537 4.26 4.26-8.52 4.26-8.52 2.555 7.241 5.11 7.241c2.556 0 5.537-3.833 5.537-3.833s-.851 8.093-2.555 10.222c-1.704 2.13-4.26 4.26-2.556 6.815 1.704 2.556 5.111 8.945 5.111 8.945s1.278.852 2.982-2.556c1.704-3.407 4.26-8.944 1.704-12.352-2.556-3.407-5.537-5.963-5.537-5.963s3.833 2.13 4.685 1.278-.852-7.241-2.556-13.63c-1.703-6.389-5.537-11.926-5.537-11.926s3.834 3.407 10.223 3.833 13.63-.852 13.63-.852-4.686 2.13-7.241 2.982c-2.556.852-4.686 2.13-4.686 2.13s5.112-.852 4.686.851c-.426 1.704-6.815 3.408-6.39 6.39.427 2.981 6.816-2.556 11.075-4.686 4.26-2.13 9.796-2.13 9.796-2.13s-5.537 7.241-8.092 8.52l-9.37 4.684s2.129 1.704 4.684.426c2.556-1.277 4.686-3.407 4.686-3.407s-1.704 6.815-4.686 9.37c-2.981 2.556-5.963 1.704-5.963 1.704s-.426 1.278-.426 4.686c0 3.407-.852 5.963-.852 5.963s5.964-5.538 7.241-8.093c1.278-2.556 6.815-4.26 6.815-4.26l-1.278 5.112 6.815-6.815 1.704 5.111s.427 1.704 2.982 1.704 3.833.426 3.833.426-5.963 1.703-11.5 2.13c-5.537.425-8.519-1.278-9.37.851-.853 2.13 0 3.408-2.556 6.39-2.556 2.98-5.111 11.074-5.111 14.481 0 3.408 1.277 4.26 1.277 4.26s0 .425 2.13-3.834c2.13-4.26 6.815-8.945 6.815-8.945s-3.408 9.37-4.685 11.927c-1.278 2.555-3.408 5.537-1.704 8.944 1.704 3.408 10.648 13.204 14.908 17.038 4.259 3.833 8.518 7.24 8.518 7.24s-2.555-4.259-.852-6.815c1.704-2.555 6.815 2.556 8.52 5.538 1.703 2.981 3.407 6.389 5.536 7.24 2.13.852 1.704.426 1.704.426l-.426-5.963s2.556 3.408 5.537 4.26c2.982.852 6.815 1.278 6.815 1.278s-5.111-3.834-8.518-7.667c-3.408-3.834-6.39-6.39-7.667-5.537-1.278.851-2.556 3.407-4.686.425-2.13-2.981-3.833-6.389-6.815-6.814-2.981-.426-5.11 4.259-5.11 4.259s-.853-4.685-.853-7.667 4.26-2.982 3.408-5.111c-.852-2.13-2.982-1.704-4.685-6.815-1.704-5.111-5.964-9.37-5.964-9.37s7.241 6.814 9.371 6.388 6.39-6.815 6.39-6.815-.853 5.112-.853 10.649 0 11.074 2.556 11.5c2.555.426 1.704-4.26 4.685-1.704 2.982 2.556 5.537 10.223 8.093 11.5 2.555 1.278 3.833-1.277 2.555-4.685-1.277-3.407-4.685-2.981-5.11-6.815-.427-3.833.425-5.111.425-5.111s1.704 6.389 3.408 6.389c1.703 0 3.407-11.926 3.407-11.926s5.963 8.519 5.537 12.778c-.426 4.26-4.259 3.833-4.259 7.24 0 3.408-.426 8.945 1.704 8.52 2.13-.426 5.11-7.667 5.11-7.667s.853 4.259 2.557 7.24l3.407 5.964s1.278-1.278 0-6.815-2.982-8.519-3.407-11.5c-.426-2.982 1.703-6.39 3.833-5.538s2.13 4.26 1.704 10.223-.852 12.778.852 12.778c1.703 0 13.63 2.555 22.148 7.667 8.519 5.11 17.464 9.37 15.76 13.204z" fill="#017b21" stroke="#014004" stroke-width="1.250264"/><path d="m73.515 182.345c-2.663-2.283-6.087-1.522-3.804-4.946 2.282-3.424 5.326-3.043 7.609-1.522 2.283 1.522-1.522-3.043 1.902-2.663s8.75 5.707 6.848 7.61c-1.902 1.902 2.664 1.902 3.425 4.565.76 2.663-1.142 8.37-4.946 7.229-3.805-1.142-8.37-.38-8.751-3.044-.38-2.663-1.902-10.653-2.283-7.229z" fill="#ffdf00" stroke="url(#b)"/><path d="m79.037 160.97c2.873 7.542 5.746 8.62 9.696 8.26 3.95-.359 10.056-9.337 7.183-12.928-2.873-3.592-7.542 3.232-7.542 3.232s0-1.796-.718-3.591c-.718-1.796-2.514-1.796-2.514-1.796s2.155 1.436 5.028 0c2.873-1.437 3.232-3.232 1.436-4.669-1.795-1.436-8.26-1.436-11.85.36-3.592 1.795-3.592 6.464-3.592 8.618 0 2.155 0 1.437 2.873 2.514z" fill="#ffdf00" stroke="url(#c)"/><path d="m60.909 171.075c-5.537 2.13-4.686-7.241-2.13-10.223 2.556-2.981 3.408-5.537 5.537-3.833 2.13 1.703-1.278 4.259 1.278 3.407s.852-4.685 2.982-3.833.851 5.111 0 8.518c-.852 3.408-1.704 7.667-3.834 8.52-2.13.851-4.685 1.703-3.833-2.556z" fill="#ffdf00" stroke="url(#d)"/><path d="m63.038 147.222c-6.815 0-5.963-.426-6.389-2.555-.426-2.13 2.982-1.278.426-3.834-2.555-2.555-2.981.852-3.407-2.13-.426-2.981 4.26-3.407 7.667-3.833s1.277 2.556 4.259 2.556 4.685-.852 4.685-.852l-1.278 3.833s3.834-1.278 2.982 1.704-1.704 7.667-8.945 5.111z" fill="#ffdf00" stroke="url(#e)"/><path d="m58.353 119.962c-1.278 4.686 1.278 6.815-2.556 6.39-3.833-.427-2.981-4.26-2.981-8.093 0-3.834 2.13-7.241 5.963-6.815s6.815 4.259 4.685 7.24c-2.13 2.982 4.26-.851 1.278 2.13-2.981 2.982-4.685 2.556-6.389-.852z" fill="#ffdf00" stroke="url(#f)"/><path d="m70.705 97.814c1.278 3.833-4.26 8.518 1.704 9.796 5.963 1.278 14.482-3.407 12.352-5.963-2.13-2.555-4.685 0-8.093 0-3.407 0-2.555-5.963-5.963-3.833z" fill="#ffdf00" stroke="url(#g)"/><path d="m103.928 134.444c-2.555 3.834-5.537 0-8.944-.426-3.408-.426-7.241 0-8.093-2.981-.852-2.982 2.555-.426 4.685-2.13s0-2.982 2.13-2.982 1.703.426 3.407 2.13-.852-4.685.426-6.815 5.111-4.26 5.537 0-1.278 8.093-2.13 9.37c-.851 1.279 5.538-2.129 2.982 3.834z" fill="#ffdf00" stroke="url(#h)"/></g><use height="496.063" transform="matrix(-1 0 0 1 750 1)" width="744.094" xlink:href="#i"/><path d="m177.66 135.28 10.78 10.149-3.53 2.67-1.755-1.962-1.237.936 1.378 2.248-3.571 2.702-7.054-12.968 4.988-3.774m3.836 8.867a151.29 151.29 0 0 1 -4.218-4.486c1.334 2.49 2.346 4.282 3.039 5.379l1.18-.893m-21.79 2.657 2.78-1.51c1.794-.975 3.046-1.56 3.756-1.754.716-.197 1.33-.216 1.842-.057.513.16.923.426 1.232.798.305.368.787 1.16 1.445 2.376l2.433 4.496c.624 1.152.98 1.958 1.068 2.416.09.45.046.868-.134 1.253-.182.38-.47.734-.863 1.064-.395.324-1.037.728-1.926 1.21l-4.686 2.547zm4.904.178 4.57 8.445c.535-.29.813-.565.834-.822.017-.263-.205-.823-.669-1.679l-2.699-4.988c-.314-.581-.537-.943-.667-1.084a.594.594 0 0 0 -.475-.204c-.19 0-.488.111-.894.332m-10.49.926 5.59 13.71-4.321.963-.781-2.514-1.514.337.32 2.617-4.372.973-1.028-14.726zm-.195 9.66c-.573-1.566-1.23-3.51-1.973-5.833.179 2.817.355 4.869.53 6.154zm-7.405-8.352-4.18 14.169-6.707-.896-.618-14.81 4.66.623c.007 4.058-.058 7.478-.195 10.262a229.383 229.383 0 0 1 1.715-7.321l.664-2.65 4.66.623m-23.22-5.075 9.46 3.089-.879 2.786-3.787-1.237-.834 2.64 3.545 1.157-.837 2.649-3.544-1.158-.967 3.062 4.164 1.36-.88 2.785-9.838-3.212zm-1.14-.747-8.402 11.937-3.879-2.73 1.518-7.047-3.82 5.427-3.7-2.604 8.402-11.937 3.7 2.604-1.302 7.121 3.783-5.375z" fill="#ffdf00" transform="matrix(1.00515 0 0 1.00515 228.089 92.498)"/></g></svg>