<svg color-interpolation="auto" height="496.063" stroke="#000" stroke-linecap="square" stroke-miterlimit="10" width="531.496" xmlns="http://www.w3.org/2000/svg"><path d="m0-.001h531.497v496.065h-531.497z" fill="#fec500" fill-rule="evenodd" stroke="none"/><path d="m0 17.716h513.781v460.632h-513.781z" fill="#fff" fill-rule="evenodd" stroke="none"/><path d="m180.454 308.636s12.205 13.948 17.435 16.563c5.231 2.615 30.513 16.564 30.513 16.564l-.873 20.05s-14.819-3.487-31.384-13.077c-16.56-9.588-31.383-25.28-31.383-25.28l17.436.872-1.743-15.692zm101.125 52.306s20.05-4.36 33.998-14.82c13.948-10.462 27.896-22.667 27.896-22.667l-16.562 1.744 1.743-16.563s-13.077 13.076-21.795 19.178c-8.717 6.104-27.024 11.334-27.024 11.334l1.742 21.794z" style="fill:#003271;fill-rule:evenodd;stroke:#fff;stroke-width:.600143;stroke-linecap:butt;stroke-miterlimit:4"/><path d="m210.966 319.097s22.666 12.205 41.844 11.334c19.179-.873 43.587-11.334 43.587-11.334l.873 27.895s-27.024 9.592-43.588 9.592c-16.563 0-42.716-9.592-42.716-9.592z" style="fill:#003271;fill-rule:evenodd;stroke:#fff;stroke-width:.600143;stroke-linecap:butt;stroke-miterlimit:4"/><path d="m210.989 346.829 16.376 14.702m69.576-14.537-15.199 13.499" fill="none" stroke="#fff" stroke-linecap="butt" stroke-miterlimit="4" stroke-width=".600143"/><g fill="#fec500"><path d="m216.687 328.599-.281 15.558 4.526 1.697v-6.224l6.789.282-.282 7.357 4.525.848.281-16.408-3.96-.282-.563 5.092-6.508-.567v-6.223l-4.527-1.132zm64.216 19.518-.282-17.821 12.161-3.679v3.96l-7.92 2.547v3.678l7.639-2.83-.282 4.243-7.356 1.699-.282 4.241 8.201-3.111.284 2.83-12.163 4.241zm-38.19-5.942s-.281-5.94 3.679-5.94 4.525 4.527 4.241 6.507c-.281 1.98-.848 5.375-3.676 5.658-2.828.282-3.96-1.981-4.243-6.225zm3.96 9.618c5.083-.133 7.639-3.395 7.639-9.9 0-6.222-4.527-9.052-7.92-9.052-3.397 0-7.638 4.243-7.638 9.334 0 5.094 2.252 9.768 7.92 9.618zm18.955-15.276v4.245s5.94.282 5.94-2.547-5.092-1.415-5.942-1.696zm-3.96 15.276-.566-17.537 6.788-.567c3.1-.257 7.638 1.131 7.356 3.96-.283 2.83-.605 5.343-5.093 5.941l-4.241.567-.286 7.355-3.96.281z" fill-rule="evenodd" stroke="none"/><path d="m250.195 166.54s-.871 95.892-.871 102.868c0 6.973 0 16.562-7.846 14.82-7.846-1.743-17.436-1.743-31.383-11.335-13.95-9.588-13.95-11.332-13.95-11.332l13.077-4.36s-13.077-2.615-21.794-8.717c-8.717-6.101-15.691-11.334-15.691-11.334s-.872 13.077 3.486 22.668c4.36 9.589 13.077 18.306 13.077 18.306v-11.334s12.205 11.334 16.564 13.948c4.358 2.615 21.794 9.59 28.768 13.95 6.973 4.357 20.923 16.562 20.923 16.562s12.203-13.947 20.922-17.436c8.717-3.486 20.05-8.717 25.28-12.203 5.23-3.488 19.178-16.565 19.178-16.565v14.82s9.592-11.333 12.205-19.177c2.616-7.846 3.487-21.796 3.487-21.796s-6.973 5.23-13.077 7.846c-6.101 2.616-23.536 9.592-23.536 9.592l13.948 3.485s-22.666 17.435-30.512 20.922c-7.846 3.488-24.41 5.23-24.41-3.487s.872-110.713.872-110.713h-8.717z" fill-rule="evenodd" stroke="#fec500" stroke-linecap="butt" stroke-width="1.334042"/><path d="m251.066 134.285h6.102v26.153h-6.102z" fill-rule="evenodd" stroke="#fec500" stroke-width=".999652"/><path d="m207.48 160.436s24.408-5.227 47.075-5.227c22.664 0 46.202 5.23 46.202 5.23v9.589s-31.384 4.359-49.69 4.359c-18.308 0-44.46-5.23-44.46-5.23l.872-8.718z" fill-rule="evenodd" stroke="#fff" stroke-linecap="butt" stroke-width="1.334042"/><path d="m263.272 156.078c0 5.778-4.1 10.461-9.154 10.461-5.056 0-9.153-4.683-9.153-10.46s4.097-10.462 9.151-10.462c5.057 0 9.156 4.683 9.156 10.461zm4.359-.436c0 7.944-6.246 14.384-13.95 14.384-7.703 0-13.947-6.44-13.947-14.384s6.244-14.384 13.948-14.384 13.949 6.441 13.949 14.384z" fill-rule="evenodd" stroke="#fff" stroke-width="1.249565"/><path d="m254.965 59.253 7.582 18.55 20.299 1.858-15.657 12.8 4.47 19.497-17.258-10.64-17.537 10.19 4.99-19.374-15.307-13.2 20.343-1.334zm89.813 21.946-2.673 19.861 16.674 11.729-19.953 3.293-5.843 19.13-9.658-17.825-20.284.095 13.983-14.31-6.693-19.072 18.302 8.98zm66.125 60.11-11.013 16.741 9.944 17.793-19.409-5.676-13.555 14.71-.982-20.25-18.32-8.703 18.803-6.84 2.231-20.087 12.601 16.024zm31.445 87.79-17.423 9.901.767 20.37-14.706-13.881-18.761 6.938 8.333-18.483-12.36-16.081 19.856 2.459 11.123-16.878 3.937 20.002zm-9.234 91.285-20.025.755-8.712 18.428-6.649-19.097-19.847-2.494 15.916-12.559-3.556-19.968 16.488 11.335 17.65-9.848-5.727 19.565zm-268.218-239.389 14.963 13.33 19.051-7.254-8.437 18.379 12.584 15.547-20.176-1.971-11.273 16.864-4.034-19.597-19.553-5.125 17.686-10.141zm137.156 301.853.287 20.039 18.22 9.139-19.248 6.202-2.957 19.782-12.182-16.204-20.048 3.085 11.72-16.216-9.433-17.876 19.424 6.183zm-173.424-251.682 1.651 19.972 18.8 7.878-18.78 7.497-1.602 19.94-13.26-15.338-19.788 4.444 10.586-16.976-10.63-17.192 19.803 4.846zm-40.876 72.329 10.978 16.763 20.282-2.045-12.929 15.55 8.105 18.285-18.97-7.152-15.272 13.347 1.204-19.97-17.543-10.039 19.715-5.188zm-3.214 82.302 17.73 9.34 16.748-11.62-3.772 19.867 15.954 12.068-20.06 2.938-6.888 19.077-8.626-18.051-20.211-.277 14.729-14.095zm65.307 57.85 5.436 19.287 19.958 4.141-17.001 10.947 2.235 19.879-15.945-12.524-18.576 8.143 7.148-18.685-13.717-14.846 20.363.974zm86.755 47.653-9.231 17.788 11.723 16.675-19.891-3.648-11.968 16.028-3.062-20.041-19.12-6.77 17.999-8.739.15-20.21 14.184 14.64zm121.867-46.757 10.125 17.293 20.358-1.027-13.691 14.882 7.18 18.67-18.588-8.095-15.922 12.566 2.203-19.885-17.019-10.903 19.95-4.196z" fill-rule="evenodd" stroke="none"/></g></svg>